<svg xmlns="http://www.w3.org/2000/svg" version="1.0" viewBox="0 0 512 512">
  <path d="M188 28.9c-62.5 27.4-65.6 28.9-67.3 32.2-1.7 3.2-1.7 7.8-1.4 76.4.3 64.8.6 73.8 2.1 80.5 4.1 17.6 13.7 34.9 26.3 47.2 5.5 5.4 71.3 53.8 97.1 71.5 7.5 5.1 13.3 5.8 19.2 2.2 11.1-6.8 93.7-67.4 99.8-73.3 12.8-12.3 22.6-29.7 26.8-47.6 1.5-6.7 1.8-15.4 2.1-80.5.3-68.6.3-73.2-1.4-76.5-1.7-3.3-4.7-4.7-67.3-32.2C288 13 257.4.1 256 .1c-1.4.1-32 13-68 28.8zm127.5 15 59 25.8v71.9c0 81.2.5 75.7-8.2 92.6-7.7 15-12.1 18.9-63.9 56.2L256 323.9l-32.7-23.6c-68.4-49.3-69.4-50.1-77.6-66.1-8.7-16.9-8.2-11.4-8.2-92.6V69.7l59-25.8C229 29.7 255.7 18.1 256 18c.3 0 27.1 11.7 59.5 25.9z"/>
  <path d="M206.5 58.1c-26.4 11.6-49 22-50.2 23.1l-2.3 2.1v62c0 69-.1 68 6.8 81.2 2 3.8 6.2 9.6 9.2 12.7 3.2 3.3 21.9 17.6 44.5 33.8 33.4 24.1 39.4 28.1 42 27.8 4.1-.5 75.7-52 84.5-60.8 3.9-3.9 7.9-9.3 10.2-13.5 6.9-13.2 6.8-12.3 6.8-81.2v-62l-2.3-2.1C353.4 79 258.3 37 255.9 37c-.8.1-23 9.5-49.4 21.1zM299.3 74l41.8 18.3-.3 58.6-.3 58.6-2.8 5.9c-1.5 3.3-4.3 7.9-6.3 10.3-3.5 4.2-73 55.3-75.3 55.3-2.1 0-69.5-49-74-53.8-2.4-2.6-5.8-7.6-7.5-11.2l-3.1-6.5-.3-58.6-.3-58.5 42.3-18.6c23.3-10.2 42.8-18.5 43.3-18.3.6.1 19.8 8.5 42.8 18.5z"/>
  <path d="M304 103.3c-1.6.8-14.1 18.6-34.6 49.2-17.6 26.4-32.4 48-32.7 48-.3 0-6.3-4.3-13.3-9.5-7-5.2-13.8-10.1-15.1-10.8-6.9-3.8-15.1 4.9-10.9 11.3 1.9 2.9 36.1 28.9 39.3 29.9 5.8 1.9 5.7 2 43.4-54.6 19.7-29.6 35.9-54.5 35.9-55.4 0-3.1-3-7.2-6.1-8.3-1.8-.6-3.2-1.1-3.3-1.1-.1 0-1.2.6-2.6 1.3zM20 224.9c-12.4 3.8-21.2 17-19.6 29.3.9 6.5 36.5 84.8 43.2 94.9 3.2 4.9 14.5 17.2 34 36.9l29.1 29.5-2.1 3.5c-2 3.4-2.1 4.7-2.1 42 0 43-.1 42.1 7.2 47.7l3.6 2.8 51.1.3c57.3.3 57.1.3 62.4-6.6l2.7-3.5.3-40.2.3-40.1-2.3-3.4c-3-4.3-6.7-7-10.9-7.9l-3.4-.7-.6-15.9c-.3-8.8-1.1-18-1.7-20.5-6.3-25.3-20.2-44.2-39.2-53.1-26.1-12.3-36.1-18.4-50.5-30.5-11.8-9.9-16.6-11.9-29-11.9-8.8 0-10.7.3-15.9 2.8-3.2 1.5-6 2.6-6.1 2.5-.1-.2-3.9-9.1-8.5-19.8-10.8-25.6-12.1-28.1-17.2-32.4-6.4-5.5-17.2-8-24.8-5.7zM33.2 243c1.8 1.3 5.6 9.1 12.3 24.7 11.7 27.5 15.3 34.8 21.3 43.3 6.4 9 50 52.7 53.4 53.6 5.8 1.3 11.7-4.7 10.3-10.4-.4-1.7-9.9-12-24.9-27.2-13.4-13.5-24.9-25.5-25.5-26.7-1-2-.8-2.4 2.8-4.3 4.8-2.4 12.6-2.6 17.6-.6 1.9.8 6.8 4.3 10.7 7.6 14.8 12.5 27.2 19.9 54.8 32.8 10.9 5.1 21.4 18.8 26.7 34.7 2.3 6.9 2.7 10.1 3.1 23.8l.4 15.7h-69.7l-33.6-33.8c-18.5-18.5-35-36-36.7-38.7C52 330.7 17 253.4 17 250.9c0-7.9 10.1-12.8 16.2-7.9zM213 461v34l-46.7-.2-46.8-.3-.3-33.8-.2-33.7h94v34z"/>
  <path d="M175.5 453.2c-5.1 2.9-6.1 9.3-2 13.3 2.1 2.2 3.3 2.5 10 2.5s7.9-.3 10-2.5c3.7-3.6 3.4-8.6-.6-11.9-2.6-2.2-4-2.6-9.2-2.6-3.4 0-7.1.6-8.2 1.2zM474 226.1c-5.8 2.6-10.6 7.2-13.5 12.9-1.2 2.5-6 13.3-10.5 24-4.6 10.7-8.4 19.6-8.6 19.8-.1.2-1.3-.3-2.6-1.1-8.7-5.5-24.7-6.2-34.8-1.5-3 1.4-10.5 6.6-16.7 11.6-13.1 10.6-25.8 18.3-41.6 25.3-17.7 7.8-28.1 17.4-36.6 33.8-7.3 14.3-9.3 22.4-10 41.6l-.6 16.9-3.4.7c-4.2.9-7.9 3.6-10.9 7.9l-2.3 3.4.3 40 .3 40.1 2.4 3.4c1.3 1.8 4.2 4.2 6.5 5.2 3.8 1.7 7.5 1.9 54.4 1.9 48.1 0 50.4-.1 54.1-2 4.8-2.4 7.8-6 9.1-11.2.7-2.4 1-17 .8-40.1-.3-34.7-.4-36.3-2.4-39.7l-2.1-3.5 29.1-29.5c19.5-19.7 30.8-32 34-36.9 7.2-10.8 42.6-89.2 43.3-95.7 1.2-11-4.8-21.8-14.9-26.8-6.7-3.3-16.1-3.6-22.8-.5zm15.9 16.3c2.8 1.5 5.1 5.3 5.1 8.6 0 2.4-35.2 79.9-39.3 86.5-1.7 2.7-18.2 20.2-36.6 38.7L385.6 410h-69.8l.4-15.7c.4-13.7.8-16.9 3.1-23.8 5.3-15.9 15.8-29.6 26.7-34.7 27.7-12.9 39.7-20.1 55.3-33.2 4.2-3.5 9.3-7 11.3-7.6 4.7-1.6 14.5-.8 17.8 1.3 2.3 1.5 2.5 2.1 1.5 4-.7 1.2-11.9 13-25 26.2s-24.3 25.3-24.8 26.8c-2.7 7 4.6 13.4 11.4 10.1 4.2-1.9 44.6-42.8 51-51.5 6-8.2 10-16.1 22-44.2 6.7-15.5 10.5-23.4 12.3-24.7 2.9-2.4 7.2-2.6 11.1-.6zm-97.1 218.3-.3 33.8-46.7.3-46.8.2v-68h94l-.2 33.7z"/>
  <path d="M319.1 454.6c-4 3.3-4.3 8.3-.6 11.9 2.1 2.2 3.3 2.5 10 2.5s7.9-.3 10-2.5c1.7-1.6 2.5-3.5 2.5-5.7-.1-6.1-4-8.8-12.9-8.8-4.9 0-6.5.4-9 2.6z"/>
</svg>