<svg id="Capa_1" enable-background="new 0 0 512 512" height="512" viewBox="0 0 512 512" width="512" xmlns="http://www.w3.org/2000/svg">

<g>
<path d="m180 276c-11.028 0-20-8.972-20-20 0-11.046-8.954-20-20-20h-80c-11.046 0-20 8.954-20 20 0 11.028-8.972 20-20 20-11.046 0-20 8.954-20 20v57.538c0 57.985 39.554 107.966 95.149 121.865 1.593.398 3.222.597 4.851.597s3.258-.199 4.851-.597c56.022-14.006 95.149-64.118 95.149-121.865v-57.538c0-11.046-8.954-20-20-20zm-20 77.538c0 37.669-24.426 70.572-59.998 81.695-35.624-11.156-60.002-44.189-60.002-81.695v-40.965c17.023-6.036 30.537-19.549 36.573-36.573h46.854c6.036 17.023 19.549 30.537 36.573 36.573z"/>
<path d="m492 136h-20v-40c0-33.084-26.916-60-60-60h-312c-33.084 0-60 26.916-60 60v80c0 11.046 8.954 20 20 20s20-8.954 20-20v-80c0-11.028 8.972-20 20-20h312c11.028 0 20 8.972 20 20v40c-44.112 0-80 35.888-80 80s35.888 80 80 80v40c0 11.028-8.972 20-20 20h-153.348c-11.046 0-20 8.954-20 20s8.954 20 20 20h153.348c33.084 0 60-26.916 60-60v-40h20c11.046 0 20-8.954 20-20v-120c0-11.046-8.954-20-20-20zm-20 120h-40c-22.056 0-40-17.944-40-40s17.944-40 40-40h40z"/>
</g>

</svg>